<mxfile host="app.diagrams.net" agent="Mozilla/5.0 (Windows NT 10.0; Win64; x64) AppleWebKit/537.36 (KHTML, like Gecko) Chrome/131.0.0.0 Safari/537.36" version="25.0.3">
  <diagram name="Trang-1" id="3ZBCGM8lfFXNUusbrkyf">
    <mxGraphModel grid="1" page="1" gridSize="10" guides="1" tooltips="1" connect="1" arrows="1" fold="1" pageScale="1" pageWidth="827" pageHeight="1169" math="0" shadow="0">
      <root>
        <mxCell id="0" />
        <mxCell id="1" parent="0" />
        <mxCell id="0xp_UW0WkmmRXZUEv-k4-1" value="Doctor" style="shape=umlActor;verticalLabelPosition=bottom;verticalAlign=top;html=1;outlineConnect=0;" vertex="1" parent="1">
          <mxGeometry x="80" y="180" width="30" height="60" as="geometry" />
        </mxCell>
        <mxCell id="0xp_UW0WkmmRXZUEv-k4-2" value="" style="swimlane;startSize=0;" vertex="1" parent="1">
          <mxGeometry x="180" y="30" width="720" height="480" as="geometry" />
        </mxCell>
        <mxCell id="0xp_UW0WkmmRXZUEv-k4-6" value="Analyze Images" style="ellipse;whiteSpace=wrap;html=1;" vertex="1" parent="0xp_UW0WkmmRXZUEv-k4-2">
          <mxGeometry x="180" y="280" width="120" height="80" as="geometry" />
        </mxCell>
        <mxCell id="0xp_UW0WkmmRXZUEv-k4-7" value="Account Utilization" style="ellipse;whiteSpace=wrap;html=1;" vertex="1" parent="0xp_UW0WkmmRXZUEv-k4-2">
          <mxGeometry x="174" y="150" width="120" height="80" as="geometry" />
        </mxCell>
        <mxCell id="0xp_UW0WkmmRXZUEv-k4-3" value="Models" style="shape=umlActor;verticalLabelPosition=bottom;verticalAlign=top;html=1;outlineConnect=0;" vertex="1" parent="1">
          <mxGeometry x="960" y="180" width="30" height="60" as="geometry" />
        </mxCell>
        <mxCell id="0xp_UW0WkmmRXZUEv-k4-4" value="Database Manager" style="shape=umlActor;verticalLabelPosition=bottom;verticalAlign=top;html=1;outlineConnect=0;" vertex="1" parent="1">
          <mxGeometry x="970" y="340" width="30" height="60" as="geometry" />
        </mxCell>
        <mxCell id="0xp_UW0WkmmRXZUEv-k4-5" value="&lt;blockquote style=&quot;margin: 0 0 0 40px; border: none; padding: 0px;&quot;&gt;Supporter&lt;/blockquote&gt;" style="shape=umlActor;verticalLabelPosition=bottom;verticalAlign=top;html=1;outlineConnect=0;" vertex="1" parent="1">
          <mxGeometry x="950" y="60" width="30" height="60" as="geometry" />
        </mxCell>
        <mxCell id="0xp_UW0WkmmRXZUEv-k4-8" value="" style="endArrow=none;html=1;rounded=0;exitX=0.5;exitY=0.5;exitDx=0;exitDy=0;exitPerimeter=0;entryX=0;entryY=0.5;entryDx=0;entryDy=0;" edge="1" parent="1" source="0xp_UW0WkmmRXZUEv-k4-1" target="0xp_UW0WkmmRXZUEv-k4-6">
          <mxGeometry width="50" height="50" relative="1" as="geometry">
            <mxPoint x="420" y="320" as="sourcePoint" />
            <mxPoint x="470" y="270" as="targetPoint" />
          </mxGeometry>
        </mxCell>
        <mxCell id="0xp_UW0WkmmRXZUEv-k4-9" value="" style="endArrow=none;html=1;rounded=0;exitX=1;exitY=0.5;exitDx=0;exitDy=0;" edge="1" parent="1" source="0xp_UW0WkmmRXZUEv-k4-6" target="0xp_UW0WkmmRXZUEv-k4-3">
          <mxGeometry width="50" height="50" relative="1" as="geometry">
            <mxPoint x="420" y="320" as="sourcePoint" />
            <mxPoint x="470" y="270" as="targetPoint" />
          </mxGeometry>
        </mxCell>
        <mxCell id="0xp_UW0WkmmRXZUEv-k4-10" value="" style="endArrow=none;html=1;rounded=0;entryX=0.5;entryY=0.5;entryDx=0;entryDy=0;entryPerimeter=0;exitX=1;exitY=0.5;exitDx=0;exitDy=0;" edge="1" parent="1" source="0xp_UW0WkmmRXZUEv-k4-6" target="0xp_UW0WkmmRXZUEv-k4-5">
          <mxGeometry width="50" height="50" relative="1" as="geometry">
            <mxPoint x="420" y="320" as="sourcePoint" />
            <mxPoint x="470" y="270" as="targetPoint" />
          </mxGeometry>
        </mxCell>
        <mxCell id="0xp_UW0WkmmRXZUEv-k4-11" value="" style="endArrow=none;html=1;rounded=0;entryX=0.5;entryY=0.5;entryDx=0;entryDy=0;entryPerimeter=0;exitX=1;exitY=0.5;exitDx=0;exitDy=0;" edge="1" parent="1" source="0xp_UW0WkmmRXZUEv-k4-7" target="0xp_UW0WkmmRXZUEv-k4-4">
          <mxGeometry width="50" height="50" relative="1" as="geometry">
            <mxPoint x="420" y="320" as="sourcePoint" />
            <mxPoint x="470" y="270" as="targetPoint" />
          </mxGeometry>
        </mxCell>
        <mxCell id="0xp_UW0WkmmRXZUEv-k4-12" value="" style="endArrow=none;html=1;rounded=0;entryX=0.5;entryY=0.5;entryDx=0;entryDy=0;entryPerimeter=0;exitX=1;exitY=0.5;exitDx=0;exitDy=0;" edge="1" parent="1" source="0xp_UW0WkmmRXZUEv-k4-7" target="0xp_UW0WkmmRXZUEv-k4-5">
          <mxGeometry width="50" height="50" relative="1" as="geometry">
            <mxPoint x="420" y="320" as="sourcePoint" />
            <mxPoint x="470" y="270" as="targetPoint" />
          </mxGeometry>
        </mxCell>
        <mxCell id="0xp_UW0WkmmRXZUEv-k4-13" value="" style="endArrow=none;html=1;rounded=0;entryX=0;entryY=0.5;entryDx=0;entryDy=0;exitX=0.5;exitY=0.5;exitDx=0;exitDy=0;exitPerimeter=0;" edge="1" parent="1" source="0xp_UW0WkmmRXZUEv-k4-1" target="0xp_UW0WkmmRXZUEv-k4-7">
          <mxGeometry width="50" height="50" relative="1" as="geometry">
            <mxPoint x="420" y="320" as="sourcePoint" />
            <mxPoint x="470" y="270" as="targetPoint" />
          </mxGeometry>
        </mxCell>
      </root>
    </mxGraphModel>
  </diagram>
</mxfile>
